<svg width="24" height="25" viewBox="0 0 24 25" fill="none" xmlns="http://www.w3.org/2000/svg">
<path fill-rule="evenodd" clip-rule="evenodd" d="M2.55733 5.5591C4.1747 5.5591 5.20895 4.40104 5.20895 2.97007C5.17794 1.46955 4.17469 0.345215 2.58831 0.345215C1.00293 0.345215 -0.0312851 1.46955 0.000722478 2.97007C-0.0312851 4.40104 1.00296 5.5591 2.55733 5.5591ZM0.130758 7.6044V24.2713H5.04791V7.6044H0.130758ZM8.85837 7.60579C8.9234 9.07155 8.98841 10.8439 8.98841 12.923H8.9904V24.2738H13.9076V14.6616C13.9076 14.1832 13.9716 13.7069 14.1017 13.3655C14.4247 12.4119 15.2328 11.4235 16.5922 11.4235C18.3716 11.4235 19.0827 12.8882 19.0827 15.0368V24.2738H24V14.3876C24 9.48146 21.5734 7.23172 18.3386 7.23172C15.718 7.23172 14.1006 8.83236 13.4535 9.88926H13.3564L13.1294 7.60579H8.85837Z" fill="#F3F3F3"/>
</svg>
