<svg width="24" height="25" viewBox="0 0 24 25" fill="none" xmlns="http://www.w3.org/2000/svg">
<path fill-rule="evenodd" clip-rule="evenodd" d="M12.378 0.345215C15.294 0.345215 15.7188 0.360768 16.9476 0.417C18.2244 0.475626 19.0968 0.677822 19.86 0.97334C20.661 1.27349 21.3866 1.74427 21.9864 2.35282C22.5967 2.95076 23.0689 3.67428 23.37 4.47289C23.6664 5.23382 23.8692 6.10363 23.928 7.37663C23.9856 8.65321 24 9.06 24 12.3095V12.4052C24 15.5674 23.9856 15.9789 23.928 17.2424C23.8692 18.5154 23.6664 19.3852 23.37 20.1461C23.0689 20.9447 22.5967 21.6682 21.9864 22.2662C21.3866 22.8747 20.661 23.3455 19.86 23.6457C19.0968 23.9412 18.2244 24.1434 16.9476 24.202C15.6672 24.2594 15.2592 24.2738 12 24.2738H11.904C8.7324 24.2738 8.3196 24.2594 7.0524 24.202C5.7756 24.1434 4.9032 23.9412 4.14 23.6457C3.339 23.3455 2.61332 22.8747 2.0136 22.2662C1.40323 21.6682 0.931049 20.9447 0.63 20.1461C0.3336 19.3852 0.1308 18.5154 0.0719999 17.2424C0.0155999 16.0172 0 15.5925 0 12.6864V11.9326C0 9.0253 0.0155999 8.60177 0.0719999 7.37663C0.1308 6.10363 0.3336 5.23382 0.63 4.47289C0.931049 3.67428 1.40323 2.95076 2.0136 2.35282C2.61332 1.74427 3.339 1.27349 4.14 0.97334C4.9032 0.677822 5.7756 0.475626 7.0524 0.417C8.2812 0.360768 8.7072 0.345215 11.622 0.345215H12.378ZM12.2808 2.50118H11.7192C8.772 2.50118 8.3784 2.51434 7.1508 2.57057C5.9808 2.62441 5.346 2.81823 4.9224 2.98214C4.362 3.19989 3.9624 3.45832 3.5424 3.87707C3.1224 4.29582 2.8632 4.69423 2.6448 5.25296C2.4804 5.6753 2.2848 6.30821 2.232 7.47473C2.1756 8.69868 2.1624 9.09111 2.1624 12.0295V12.5895C2.1624 15.5279 2.1756 15.9203 2.232 17.1443C2.286 18.3108 2.4804 18.9437 2.6448 19.366C2.8632 19.9236 3.1236 20.3232 3.5424 20.7419C3.9624 21.1607 4.362 21.4191 4.9224 21.6369C5.346 21.8008 5.9808 21.9958 7.1508 22.0484C8.4156 22.1059 8.7948 22.1178 12 22.1178H12.096C15.2124 22.1178 15.5964 22.1059 16.848 22.0484C18.0192 21.9946 18.654 21.8008 19.0776 21.6369C19.6368 21.4191 20.0376 21.1607 20.4576 20.7419C20.8776 20.3232 21.1368 19.9248 21.3552 19.366C21.5196 18.9437 21.7152 18.3108 21.768 17.1443C21.8256 15.882 21.8376 15.5052 21.8376 12.3095V12.2138C21.8376 9.10666 21.8256 8.7238 21.768 7.47593C21.714 6.30821 21.5196 5.6753 21.3552 5.25296C21.163 4.7332 20.8562 4.26304 20.4576 3.87707C20.0705 3.47969 19.5989 3.17388 19.0776 2.98214C18.654 2.81823 18.0192 2.62321 16.8492 2.57057C15.6216 2.51434 15.228 2.50118 12.2808 2.50118ZM12 6.16584C12.8092 6.16584 13.6105 6.32475 14.3581 6.6335C15.1057 6.94225 15.785 7.39479 16.3572 7.96528C16.9294 8.53577 17.3833 9.21304 17.6929 9.95842C18.0026 10.7038 18.162 11.5027 18.162 12.3095C18.162 13.1163 18.0026 13.9152 17.6929 14.6606C17.3833 15.406 16.9294 16.0833 16.3572 16.6537C15.785 17.2242 15.1057 17.6768 14.3581 17.9855C13.6105 18.2943 12.8092 18.4532 12 18.4532C10.3657 18.4532 8.79841 17.8059 7.64281 16.6537C6.48721 15.5016 5.838 13.9389 5.838 12.3095C5.838 10.6801 6.48721 9.11744 7.64281 7.96528C8.79841 6.81312 10.3657 6.16584 12 6.16584ZM12 8.3218C10.9392 8.3218 9.92192 8.74193 9.17185 9.48977C8.42178 10.2376 8.0004 11.2519 8.0004 12.3095C8.0004 13.3671 8.42178 14.3814 9.17185 15.1292C9.92192 15.877 10.9392 16.2972 12 16.2972C13.0608 16.2972 14.078 15.877 14.8282 15.1292C15.5782 14.3814 15.9996 13.3671 15.9996 12.3095C15.9996 11.2519 15.5782 10.2376 14.8282 9.48977C14.078 8.74193 13.0608 8.3218 12 8.3218ZM18.4056 4.48725C18.7876 4.48725 19.1538 4.63851 19.4238 4.90776C19.6939 5.17702 19.8456 5.54219 19.8456 5.92296C19.8456 6.30374 19.6939 6.66891 19.4238 6.93817C19.1538 7.20741 18.7876 7.35868 18.4056 7.35868C18.0236 7.35868 17.6574 7.20741 17.3874 6.93817C17.1173 6.66891 16.9656 6.30374 16.9656 5.92296C16.9656 5.54219 17.1173 5.17702 17.3874 4.90776C17.6574 4.63851 18.0236 4.48725 18.4056 4.48725Z" fill="#F3F3F3"/>
</svg>
