<svg width="42" height="37" viewBox="0 0 42 37" fill="none" xmlns="http://www.w3.org/2000/svg">
<path d="M7.33273 18.3633C7.48164 18.5888 7.48164 18.883 7.33273 19.1084L1.2118 28.3762C0.848091 28.9269 -2.85971e-08 28.6662 0 28.0037L8.00089e-07 9.46811C8.28686e-07 8.8056 0.848093 8.54488 1.2118 9.09557L7.33273 18.3633Z" fill="white"/>
<path d="M2.30142 2.19436C1.46187 0.98245 1.96637 0 3.42825 0H28.1774C29.6392 0 31.5049 0.98245 32.3444 2.19436L40.7051 14.2634C41.5447 15.4753 41.0402 16.4577 39.5783 16.4577H14.8292C13.3673 16.4577 11.5017 15.4753 10.6621 14.2634L2.30142 2.19436Z" fill="white"/>
<path d="M10.625 22.821C11.4745 21.6162 13.3483 20.6396 14.8102 20.6396H39.5593C41.0212 20.6396 41.5176 21.6162 40.668 22.821L32.2078 34.8186C31.3582 36.0234 29.4845 37 28.0226 37H3.27349C1.81161 37 1.31521 36.0234 2.16475 34.8186L10.625 22.821Z" fill="white"/>
</svg>
